<?xml version="1.0" encoding="utf-8"?>
<!-- Generator: Adobe Illustrator 16.0.0, SVG Export Plug-In . SVG Version: 6.00 Build 0)  -->
<!DOCTYPE svg PUBLIC "-//W3C//DTD SVG 1.1//EN" "http://www.w3.org/Graphics/SVG/1.1/DTD/svg11.dtd">
<svg version="1.1" xmlns="http://www.w3.org/2000/svg" xmlns:xlink="http://www.w3.org/1999/xlink" x="0px" y="0px"
	 width="261.333px" height="101.333px" viewBox="0 0 261.333 101.333" enable-background="new 0 0 261.333 101.333"
	 xml:space="preserve">
<g id="Layer_1" display="none">
	<g id="Layer_1_1_">
		<g id="Layer_3" display="inline">
			<g id="tempbg">
				
					<rect x="-22.047" y="-18.159" stroke="#000000" stroke-width="0.5592" stroke-miterlimit="10" width="305.428" height="137.652"/>
			</g>
		</g>
		<g id="Layer_2" display="inline">
			
				<text transform="matrix(1 0 0 1 141.8091 47.4653)" fill="#E2E2E2" font-family="'Roboto-Bold'" font-size="23.021" letter-spacing="1">MILLIO</text>
			<text transform="matrix(1 0 0 1 238.9712 47.4653)" fill="#E2E2E2" font-family="'Roboto-Bold'" font-size="23.021">N</text>
			
				<text transform="matrix(1 0 0 1 141.8091 68.7114)" fill="#EF4E30" font-family="'Roboto-Bold'" font-size="23.021" letter-spacing="3">V</text>
			
				<text transform="matrix(1 0 0 1 161.8423 68.7114)" fill="#EF4E30" font-family="'Roboto-Bold'" font-size="23.021" letter-spacing="2">O</text>
			
				<text transform="matrix(1 0 0 1 182.1489 68.7114)" fill="#EF4E30" font-family="'Roboto-Bold'" font-size="23.021" letter-spacing="3">TE</text>
			
				<text transform="matrix(1 0 0 1 219.604 68.7114)" fill="#EF4E30" font-family="'Roboto-Bold'" font-size="23.021" letter-spacing="3">R</text>
			<text transform="matrix(1 0 0 1 240.3501 68.7114)" fill="#EF4E30" font-family="'Roboto-Bold'" font-size="23.021">S</text>
			<text transform="matrix(1 0 0 1 141.8091 89.9614)" fill="#E2E2E2" font-family="'Roboto-Bold'" font-size="23.021">PR</text>
			<text transform="matrix(1 0 0 1 176.6743 89.9614)" fill="#E2E2E2" font-family="'Roboto-Bold'" font-size="23.021">OJE</text>
			<text transform="matrix(1 0 0 1 225.8032 89.9614)" fill="#E2E2E2" font-family="'Roboto-Bold'" font-size="23.021">C</text>
			<text transform="matrix(1 0 0 1 242.5435 89.9614)" fill="#E2E2E2" font-family="'Roboto-Bold'" font-size="23.021">T</text>
			<polygon fill="none" stroke="#808184" stroke-miterlimit="10" points="48.341,31.485 67.148,31.485 67.148,49.363 94.081,73.279 
				95.591,76.875 97.101,76.875 97.796,78.385 95.358,80.361 96.403,82.681 94.778,85.931 96.403,86.747 96.403,88.952 
				82.937,91.157 82.937,88.833 78.874,85.12 77.597,86.282 76.436,82.566 74.579,83.495 71.328,81.986 71.821,81.536 
				68.644,80.273 66.466,80.967 65.377,80.054 65.377,77.661 63.418,76.004 64.333,75.133 61.938,73.917 58.935,67.299 
				60.807,67.735 59.893,65.645 58.5,65.733 56.627,64.627 56.714,62.12 55.975,60.682 58.673,62.422 59.587,63.774 59.937,62.772 
				58.847,61.118 58.673,60.247 58.064,59.375 60.197,58.723 58.5,57.59 57.759,56.59 55.234,57.157 56.062,60.03 54.276,58.723 
				54.32,56.764 50.01,52.627 50.837,51.497 50.837,50.713 49.836,50.364 49.923,47.535 47.137,44.705 46.614,43.53 47.093,42.485 
				47.877,41.44 48.965,41.396 49.663,39.002 49.227,38.392 50.053,36.085 48.486,34.344 49.096,33.647 			"/>
			
				<text transform="matrix(1 0 0 1 98.0898 80.979)" fill="#282780" font-family="'AbadiMT-CondensedExtraBold'" font-size="63.6646">P</text>
			
				<text transform="matrix(1 0 0 1 5.6489 80.9165)" fill="#282780" font-family="'AbadiMT-CondensedExtraBold'" font-size="63.6646">M</text>
			<rect x="53.71" y="47.393" fill="none" stroke="#E2E2E2" stroke-miterlimit="10" width="37.449" height="32.087"/>
			<polygon fill="#EF4E30" points="53.71,43.502 66.443,43.502 71.218,55.881 91.378,10.962 105.88,4.419 71.571,82.142 			"/>
		</g>
	</g>
	<g id="Layer_2_1_" display="inline">
		
			<text transform="matrix(1 0 0 1 141.8081 47.3296)" fill="#231F20" font-family="'Roboto-Bold'" font-size="23.021" letter-spacing="2">MILLION</text>
		
			<text transform="matrix(1 0 0 1 141.8081 68.5776)" fill="#EF4E30" font-family="'Roboto-Bold'" font-size="23.021" letter-spacing="4">V</text>
		
			<text transform="matrix(1 0 0 1 161.8423 68.5776)" fill="#EF4E30" font-family="'Roboto-Bold'" font-size="23.021" letter-spacing="3">O</text>
		
			<text transform="matrix(1 0 0 1 182.1489 68.5776)" fill="#EF4E30" font-family="'Roboto-Bold'" font-size="23.021" letter-spacing="4">TE</text>
		
			<text transform="matrix(1 0 0 1 219.604 68.5776)" fill="#EF4E30" font-family="'Roboto-Bold'" font-size="23.021" letter-spacing="4">R</text>
		<text transform="matrix(1 0 0 1 240.3491 68.5776)" fill="#EF4E30" font-family="'Roboto-Bold'" font-size="23.021">S</text>
		
			<text transform="matrix(1 0 0 1 141.8081 89.8276)" fill="#231F20" font-family="'Roboto-Bold'" font-size="23.021" letter-spacing="1">PR</text>
		
			<text transform="matrix(1 0 0 1 176.6724 89.8276)" fill="#231F20" font-family="'Roboto-Bold'" font-size="23.021" letter-spacing="1">OJE</text>
		
			<text transform="matrix(1 0 0 1 225.8032 89.8276)" fill="#231F20" font-family="'Roboto-Bold'" font-size="23.021" letter-spacing="1">C</text>
		<text transform="matrix(1 0 0 1 242.5435 89.8276)" fill="#231F20" font-family="'Roboto-Bold'" font-size="23.021">T</text>
		<polygon fill="none" stroke="#808184" stroke-miterlimit="10" points="48.341,31.351 67.148,31.351 67.148,49.228 94.081,73.144 
			95.59,76.743 97.1,76.743 97.796,78.25 95.358,80.226 96.403,82.545 94.778,85.795 96.403,86.611 96.403,88.816 82.936,91.021 
			82.936,88.7 78.873,84.984 77.596,86.146 76.435,82.431 74.578,83.359 71.327,81.851 71.821,81.4 68.643,80.138 66.466,80.833 
			65.377,79.918 65.377,77.525 63.418,75.872 64.333,75 61.938,73.784 58.934,67.165 60.806,67.601 59.892,65.51 58.499,65.597 
			56.627,64.495 56.714,61.984 55.974,60.545 58.673,62.29 59.587,63.638 59.936,62.638 58.847,60.982 58.673,60.113 58.064,59.243 
			60.197,58.586 58.499,57.458 57.759,56.456 55.234,57.021 56.061,59.894 54.276,58.586 54.32,56.627 50.01,52.495 50.837,51.361 
			50.837,50.578 49.836,50.23 49.923,47.4 47.137,44.57 46.614,43.396 47.093,42.351 47.877,41.306 48.965,41.261 49.662,38.867 
			49.226,38.257 50.053,35.951 48.486,34.208 49.096,33.513 		"/>
		
			<text transform="matrix(1 0 0 1 98.0894 80.8423)" fill="#282780" font-family="'AbadiMT-CondensedExtraBold'" font-size="63.6646">P</text>
		
			<text transform="matrix(1 0 0 1 5.6484 80.7798)" fill="#282780" font-family="'AbadiMT-CondensedExtraBold'" font-size="63.6646">M</text>
		<rect x="53.709" y="47.257" fill="none" stroke="#231F20" stroke-miterlimit="10" width="37.449" height="32.087"/>
		<polygon fill="#EF4E30" points="53.709,43.367 66.442,43.367 71.217,55.747 91.377,10.827 105.879,4.284 71.57,82.006 		"/>
	</g>
</g>
<g id="Layer_2_2_">
	<g>
		<g>
			<path fill="#E2E2E2" d="M147.62,30.827l4.17,12.061h0.068l4.203-12.061h4.295v16.366h-3.283v-4.879l0.314-7.228l-0.066-0.011
				l-4.385,12.117h-2.203l-4.361-12.072l-0.067,0.011l0.315,7.183v4.879h-3.283V30.827H147.62z"/>
			<path fill="#E2E2E2" d="M170.73,47.193h-3.282V30.827h3.282V47.193z"/>
			<path fill="#E2E2E2" d="M181.105,44.664h7.284v2.529h-10.566V30.827h3.282V44.664z"/>
			<path fill="#E2E2E2" d="M197.381,44.664h7.284v2.529h-10.566V30.827h3.282V44.664z"/>
			<path fill="#E2E2E2" d="M213.86,47.193h-3.283V30.827h3.283V47.193z"/>
			<path fill="#E2E2E2" d="M234.115,40.482c0,2.009-0.635,3.669-1.905,4.979c-1.27,1.312-2.92,1.968-4.951,1.968
				c-2.016,0-3.653-0.656-4.912-1.968c-1.26-1.311-1.889-2.971-1.889-4.979v-2.945c0-2,0.627-3.658,1.883-4.974
				c1.255-1.315,2.891-1.973,4.906-1.973c2.031,0,3.684,0.657,4.957,1.973c1.274,1.315,1.911,2.974,1.911,4.974V40.482z
				 M230.833,37.523c0-1.276-0.318-2.323-0.955-3.142c-0.637-0.819-1.514-1.229-2.631-1.229c-1.116,0-1.982,0.408-2.596,1.223
				c-0.615,0.814-0.922,1.863-0.922,3.147v2.974c0,1.299,0.311,2.357,0.933,3.176s1.487,1.228,2.597,1.228
				c1.124,0,2-0.409,2.631-1.228c0.629-0.818,0.943-1.877,0.943-3.176V37.523z"/>
			<path fill="#E2E2E2" d="M253.73,47.193h-3.271l-6.609-11.185l-0.067,0.012v11.173H240.5V30.827h3.282L250.391,42l0.067-0.011
				V30.827h3.271V47.193z"/>
		</g>
		<g>
			<path fill="#EF4E30" d="M148.889,64.09l0.203,0.889h0.067l0.19-0.866l3.564-12.038h3.461l-5.563,16.366h-3.372l-5.553-16.366
				h3.462L148.889,64.09z"/>
			<path fill="#EF4E30" d="M176.534,61.73c0,2.009-0.635,3.669-1.906,4.979c-1.27,1.312-2.92,1.968-4.951,1.968
				c-2.016,0-3.652-0.656-4.912-1.968c-1.259-1.311-1.889-2.971-1.889-4.979v-2.945c0-2,0.628-3.658,1.883-4.974
				c1.256-1.315,2.891-1.973,4.907-1.973c2.03,0,3.683,0.657,4.957,1.973s1.911,2.974,1.911,4.974V61.73z M173.25,58.771
				c0-1.276-0.318-2.323-0.955-3.142c-0.637-0.819-1.514-1.229-2.63-1.229s-1.982,0.408-2.597,1.223
				c-0.615,0.814-0.922,1.863-0.922,3.147v2.974c0,1.299,0.311,2.357,0.934,3.176c0.621,0.818,1.486,1.228,2.596,1.228
				c1.125,0,2.001-0.409,2.631-1.228c0.629-0.818,0.943-1.877,0.943-3.176V58.771z"/>
			<path fill="#EF4E30" d="M194.985,54.604h-4.631v13.837h-3.282V54.604h-4.608v-2.529h12.521V54.604z"/>
			<path fill="#EF4E30" d="M212.426,61.247h-6.778v4.665h7.925v2.529h-11.207V52.075h11.185v2.529h-7.902v4.113h6.778V61.247z"/>
			<path fill="#EF4E30" d="M224.415,61.899v6.542h-3.281V52.075h6.17c1.867,0,3.326,0.425,4.379,1.275s1.58,2.037,1.58,3.558
				c0,0.847-0.222,1.574-0.664,2.181c-0.441,0.607-1.09,1.099-1.944,1.473c0.966,0.285,1.661,0.761,2.085,1.428
				s0.635,1.491,0.635,2.473v1.203c0,0.457,0.062,0.935,0.186,1.433c0.124,0.499,0.336,0.868,0.635,1.107v0.236h-3.383
				c-0.3-0.239-0.494-0.641-0.584-1.203c-0.09-0.562-0.135-1.094-0.135-1.596v-1.158c0-0.816-0.224-1.451-0.67-1.905
				c-0.445-0.453-1.073-0.68-1.883-0.68H224.415z M224.415,59.37h2.833c0.922,0,1.609-0.194,2.063-0.585
				c0.453-0.389,0.68-0.966,0.68-1.73c0-0.749-0.227-1.345-0.68-1.787c-0.454-0.442-1.123-0.663-2.008-0.663h-2.889V59.37z"/>
			<path fill="#EF4E30" d="M250.713,64.169c0-0.63-0.223-1.136-0.669-1.518s-1.228-0.742-2.344-1.079
				c-1.948-0.562-3.421-1.229-4.418-2.001c-0.997-0.771-1.495-1.828-1.495-3.17c0-1.341,0.572-2.438,1.715-3.288
				c1.143-0.85,2.602-1.275,4.378-1.275c1.798,0,3.264,0.478,4.396,1.434c1.131,0.955,1.678,2.134,1.641,3.535l-0.022,0.067h-3.181
				c0-0.757-0.254-1.37-0.76-1.838c-0.505-0.469-1.215-0.703-2.129-0.703c-0.877,0-1.556,0.195-2.035,0.585
				s-0.719,0.888-0.719,1.495c0,0.555,0.256,1.01,0.77,1.365c0.514,0.356,1.399,0.732,2.658,1.13
				c1.807,0.502,3.174,1.165,4.104,1.989c0.929,0.825,1.393,1.907,1.393,3.249c0,1.401-0.552,2.507-1.657,3.316
				c-1.105,0.809-2.565,1.214-4.378,1.214c-1.784,0-3.339-0.459-4.665-1.377c-1.327-0.918-1.972-2.205-1.934-3.861l0.022-0.067
				h3.192c0,0.974,0.298,1.688,0.894,2.142c0.596,0.453,1.426,0.68,2.49,0.68c0.891,0,1.573-0.184,2.045-0.551
				C250.477,65.275,250.713,64.784,250.713,64.169z"/>
		</g>
		<g>
			<path fill="#E2E2E2" d="M146.62,83.754v5.936h-3.283V73.324h6.52c1.881,0,3.361,0.479,4.44,1.438s1.618,2.222,1.618,3.788
				s-0.539,2.825-1.618,3.777c-1.079,0.951-2.56,1.427-4.44,1.427H146.62z M146.62,81.226h3.236c0.914,0,1.607-0.249,2.08-0.748
				c0.473-0.498,0.708-1.133,0.708-1.905c0-0.787-0.234-1.437-0.702-1.95c-0.469-0.513-1.164-0.77-2.086-0.77h-3.236V81.226z"/>
			<path fill="#E2E2E2" d="M163.94,83.148v6.542h-3.283V73.324h6.172c1.865,0,3.325,0.425,4.378,1.275s1.579,2.037,1.579,3.558
				c0,0.847-0.221,1.574-0.663,2.181c-0.442,0.607-1.091,1.099-1.944,1.473c0.967,0.285,1.662,0.761,2.085,1.428
				s0.636,1.491,0.636,2.473v1.203c0,0.457,0.061,0.935,0.186,1.433c0.123,0.499,0.334,0.868,0.635,1.107v0.236h-3.384
				c-0.3-0.239-0.495-0.641-0.585-1.203c-0.09-0.562-0.135-1.094-0.135-1.596v-1.158c0-0.816-0.223-1.451-0.668-1.905
				c-0.446-0.453-1.074-0.68-1.883-0.68H163.94z M163.94,80.619h2.832c0.922,0,1.609-0.194,2.062-0.585
				c0.453-0.389,0.68-0.966,0.68-1.73c0-0.749-0.227-1.345-0.68-1.787s-1.122-0.663-2.006-0.663h-2.889V80.619z"/>
			<path fill="#E2E2E2" d="M191.365,82.979c0,2.009-0.635,3.669-1.905,4.979c-1.27,1.312-2.92,1.968-4.951,1.968
				c-2.016,0-3.653-0.656-4.912-1.968c-1.26-1.311-1.889-2.971-1.889-4.979v-2.945c0-2,0.627-3.658,1.883-4.974
				c1.255-1.315,2.891-1.973,4.906-1.973c2.031,0,3.684,0.657,4.957,1.973c1.274,1.315,1.911,2.974,1.911,4.974V82.979z
				 M188.083,80.02c0-1.276-0.318-2.323-0.955-3.142c-0.637-0.819-1.514-1.229-2.631-1.229c-1.116,0-1.982,0.408-2.596,1.223
				c-0.615,0.814-0.922,1.863-0.922,3.147v2.974c0,1.299,0.311,2.357,0.933,3.176s1.487,1.228,2.597,1.228
				c1.124,0,2-0.409,2.631-1.228c0.629-0.818,0.943-1.877,0.943-3.176V80.02z"/>
			<path fill="#E2E2E2" d="M203.133,73.324h3.271v11.454c0,1.581-0.516,2.835-1.546,3.76c-1.03,0.926-2.332,1.389-3.906,1.389
				c-1.709,0-3.061-0.416-4.058-1.248s-1.477-2.057-1.438-3.676l0.021-0.067h3.193c0,0.858,0.205,1.482,0.617,1.874
				c0.412,0.393,0.967,0.588,1.664,0.588c0.607,0,1.123-0.234,1.546-0.702s0.636-1.11,0.636-1.926V73.324z"/>
			<path fill="#E2E2E2" d="M221.825,82.496h-6.777v4.665h7.924v2.529h-11.207V73.324h11.186v2.529h-7.902v4.113h6.777V82.496z"/>
			<path fill="#E2E2E2" d="M239.686,84.115l0.021,0.067c0.03,1.761-0.508,3.158-1.613,4.192s-2.639,1.552-4.603,1.552
				c-1.971,0-3.571-0.634-4.8-1.9c-1.229-1.266-1.844-2.896-1.844-4.89v-3.248c0-1.986,0.6-3.616,1.799-4.89
				c1.199-1.274,2.758-1.911,4.676-1.911c2.023,0,3.605,0.519,4.744,1.557s1.693,2.452,1.664,4.243l-0.023,0.067h-3.191
				c0-1.079-0.259-1.905-0.775-2.479c-0.518-0.573-1.323-0.859-2.418-0.859c-0.981,0-1.761,0.398-2.338,1.196
				c-0.576,0.797-0.865,1.813-0.865,3.049v3.268c0,1.25,0.304,2.274,0.91,3.071c0.607,0.798,1.428,1.196,2.462,1.196
				c1.026,0,1.786-0.275,2.276-0.826s0.736-1.369,0.736-2.456H239.686z"/>
			<path fill="#E2E2E2" d="M255.379,75.853h-4.631V89.69h-3.282V75.853h-4.608v-2.529h12.521V75.853z"/>
		</g>
		<polygon fill="none" stroke="#808184" stroke-miterlimit="10" points="48.341,31.215 67.148,31.215 67.148,49.092 94.081,73.008 
			95.59,76.606 97.1,76.606 97.796,78.116 95.358,80.09 96.403,82.411 94.778,85.661 96.403,86.475 96.403,88.68 82.936,90.885 
			82.936,88.563 78.873,84.848 77.596,86.01 76.435,82.295 74.578,83.223 71.327,81.715 71.821,81.264 68.643,80.002 66.466,80.698 
			65.377,79.784 65.377,77.389 63.418,75.735 64.333,74.864 61.938,73.647 58.934,67.028 60.806,67.465 59.892,65.375 
			58.499,65.461 56.627,64.358 56.714,61.848 55.974,60.411 58.673,62.153 59.587,63.502 59.936,62.502 58.847,60.846 
			58.673,59.977 58.064,59.106 60.197,58.452 58.499,57.321 57.759,56.319 55.234,56.885 56.061,59.758 54.276,58.452 54.32,56.493 
			50.01,52.358 50.837,51.225 50.837,50.441 49.836,50.094 49.923,47.264 47.137,44.434 46.614,43.26 47.093,42.215 47.877,41.17 
			48.965,41.125 49.662,38.73 49.226,38.121 50.053,35.814 48.486,34.072 49.096,33.377 		"/>
		
			<text transform="matrix(1 0 0 1 98.0894 80.7065)" fill="#282780" font-family="'AbadiMT-CondensedExtraBold'" font-size="63.6646">P</text>
		
			<text transform="matrix(1 0 0 1 5.6484 80.6431)" fill="#282780" font-family="'AbadiMT-CondensedExtraBold'" font-size="63.6646">M</text>
		<rect x="53.709" y="47.121" fill="none" stroke="#E2E2E2" stroke-miterlimit="10" width="37.449" height="32.088"/>
		<polygon fill="#EF4E30" points="53.709,43.23 66.442,43.23 71.217,55.61 91.377,10.691 105.879,4.148 71.57,81.872 		"/>
	</g>
</g>
</svg>
