<?xml version="1.0" encoding="utf-8"?>
<!-- Generator: Adobe Illustrator 16.0.0, SVG Export Plug-In . SVG Version: 6.00 Build 0)  -->
<!DOCTYPE svg PUBLIC "-//W3C//DTD SVG 1.1//EN" "http://www.w3.org/Graphics/SVG/1.1/DTD/svg11.dtd">
<svg version="1.1" xmlns="http://www.w3.org/2000/svg" xmlns:xlink="http://www.w3.org/1999/xlink" x="0px" y="0px"
	 width="261.333px" height="101.333px" viewBox="0 0 261.333 101.333" enable-background="new 0 0 261.333 101.333"
	 xml:space="preserve">
<g id="tempbg" display="none">
	
		<rect x="-22.047" y="-18.159" display="inline" stroke="#000000" stroke-width="0.5592" stroke-miterlimit="10" width="305.428" height="137.651"/>
</g>
<g id="Logo">
	<g>
		<text transform="matrix(1 0 0 1 141.8091 47.5991)"><tspan x="0" y="0" fill="#FFFFFF" font-family="'Roboto-Bold'" font-size="23.021" letter-spacing="3">MILLIO</tspan><tspan x="97.162" y="0" fill="#FFFFFF" font-family="'Roboto-Bold'" font-size="23.021">N</tspan></text>
		<text transform="matrix(1 0 0 1 141.8091 68.8472)"><tspan x="0" y="0" fill="#F04E30" font-family="'Roboto-Bold'" font-size="23.021" letter-spacing="5">V</tspan><tspan x="20.033" y="0" fill="#F04E30" font-family="'Roboto-Bold'" font-size="23.021" letter-spacing="4">O</tspan><tspan x="40.34" y="0" fill="#F04E30" font-family="'Roboto-Bold'" font-size="23.021" letter-spacing="5">TE</tspan><tspan x="77.795" y="0" fill="#F04E30" font-family="'Roboto-Bold'" font-size="23.021" letter-spacing="5">R</tspan><tspan x="98.541" y="0" fill="#F04E30" font-family="'Roboto-Bold'" font-size="23.021">S</tspan></text>
		<text transform="matrix(1 0 0 1 141.8091 90.0962)"><tspan x="0" y="0" fill="#FFFFFF" font-family="'Roboto-Bold'" font-size="23.021" letter-spacing="2">PR</tspan><tspan x="34.865" y="0" fill="#FFFFFF" font-family="'Roboto-Bold'" font-size="23.021" letter-spacing="2">OJE</tspan><tspan x="83.994" y="0" fill="#FFFFFF" font-family="'Roboto-Bold'" font-size="23.021" letter-spacing="2">C</tspan><tspan x="100.734" y="0" fill="#FFFFFF" font-family="'Roboto-Bold'" font-size="23.021">T</tspan></text>
		<polygon fill="none" stroke="#808285" stroke-miterlimit="10" points="48.341,31.621 67.149,31.621 67.149,49.499 94.082,73.414 
			95.59,77.012 97.101,77.012 97.796,78.521 95.359,80.496 96.404,82.816 94.779,86.067 96.404,86.88 96.404,89.085 82.937,91.292 
			82.937,88.969 78.874,85.254 77.596,86.416 76.436,82.701 74.579,83.629 71.328,82.121 71.822,81.67 68.644,80.409 66.466,81.104 
			65.377,80.19 65.377,77.795 63.418,76.141 64.333,75.27 61.939,74.052 58.935,67.434 60.807,67.871 59.893,65.781 58.5,65.868 
			56.627,64.763 56.714,62.254 55.975,60.817 58.673,62.558 59.587,63.909 59.937,62.908 58.847,61.252 58.673,60.382 
			58.065,59.511 60.198,58.858 58.5,57.726 57.759,56.725 55.235,57.292 56.062,60.165 54.277,58.858 54.321,56.899 50.01,52.763 
			50.837,51.631 50.837,50.848 49.836,50.5 49.923,47.67 47.137,44.84 46.615,43.666 47.093,42.621 47.877,41.576 48.965,41.532 
			49.663,39.137 49.227,38.527 50.053,36.22 48.487,34.479 49.096,33.783 		"/>
		
			<text transform="matrix(1 0 0 1 98.0898 81.1128)" fill="#282781" font-family="'AbadiMT-CondensedExtraBold'" font-size="63.6646">P</text>
		
			<text transform="matrix(1 0 0 1 5.6489 81.0493)" fill="#282781" font-family="'AbadiMT-CondensedExtraBold'" font-size="63.6646">M</text>
		<rect x="53.71" y="47.528" fill="none" stroke="#FFFFFF" stroke-miterlimit="10" width="37.449" height="32.088"/>
		<polygon fill="#F04E30" points="53.71,43.637 66.443,43.637 71.218,56.016 91.378,11.097 105.88,4.554 71.571,82.278 		"/>
	</g>
</g>
</svg>
